<svg xmlns="http://www.w3.org/2000/svg" width="900" height="340" viewBox="0 0 900 340" role="img" aria-labelledby="title desc">
  <title id="title">Turbulent structures across scales</title>
  <desc id="desc">A conceptual illustration of interacting vortices of different sizes, not simulation data.</desc>
  <defs>
    <pattern id="grid" width="30" height="30" patternUnits="userSpaceOnUse"><path d="M30 0H0V30" fill="none" stroke="#dfe8e5" stroke-width=".7"/></pattern>
    <path id="vortex" d="M-86 20C-116-49-47-103 20-90C93-76 99 21 57 57C13 98-63 74-64 19C-66-34-11-58 25-34C60-9 31 42 1 28C-19 19-18-5-3-10"/>
    <marker id="arrow" markerWidth="6" markerHeight="6" refX="5" refY="3" orient="auto"><path d="M0 0L6 3L0 6" fill="none" stroke="#7d9790"/></marker>
  </defs>
  <rect width="900" height="340" fill="#f7faf9"/>
  <rect x="24" y="24" width="852" height="267" fill="url(#grid)"/>
  <g fill="none" stroke="#b8cbc5" stroke-width="1.4" opacity=".8">
    <path d="M25 72C123 34 238 44 315 91S452 83 529 52S699 101 875 57"/>
    <path d="M25 112C133 65 208 59 303 127S457 135 535 89S699 136 875 105"/>
    <path d="M25 218C119 255 224 252 320 223S467 258 552 220S750 225 875 246"/>
    <path d="M25 268C179 304 236 266 329 262S463 292 587 258S744 272 875 282"/>
  </g>
  <g fill="none" stroke-linecap="round">
    <use href="#vortex" transform="translate(169 173) rotate(-20)" stroke="#237e79" stroke-width="3"/>
    <use href="#vortex" transform="translate(169 173) rotate(-20) scale(.8)" stroke="#78ada0" stroke-width="1.7"/>
    <use href="#vortex" transform="translate(414 161) rotate(150) scale(.73)" stroke="#476c84" stroke-width="3.5"/>
    <use href="#vortex" transform="translate(414 161) rotate(150) scale(.55)" stroke="#91abb9" stroke-width="2"/>
    <use href="#vortex" transform="translate(651 124) rotate(30) scale(.52)" stroke="#237e79" stroke-width="4"/>
    <use href="#vortex" transform="translate(718 224) rotate(-100) scale(.38)" stroke="#b5795e" stroke-width="4"/>
    <use href="#vortex" transform="translate(800 131) rotate(90) scale(.27)" stroke="#476c84" stroke-width="5"/>
    <use href="#vortex" transform="translate(575 222) rotate(-35) scale(.22)" stroke="#237e79" stroke-width="5"/>
  </g>
  <g stroke="#7d9790" stroke-width="1.4" marker-end="url(#arrow)"><path d="M281 171H324"/><path d="M504 155L552 141"/><path d="M700 143L746 158"/></g>
  <g fill="#4d625c" font-family="Georgia,serif" font-size="20" font-style="italic" text-anchor="middle"><text x="170" y="319">ℓ₁</text><text x="415" y="319">ℓ₂</text><text x="650" y="319">ℓ₃</text><text x="800" y="319">ℓ₄</text></g>
</svg>
